<svg xmlns="http://www.w3.org/2000/svg" xmlns:xlink="http://www.w3.org/1999/xlink" width="500" zoomAndPan="magnify" viewBox="0 0 375 374.999991" height="500" preserveAspectRatio="xMidYMid meet" version="1.2"><defs><clipPath id="7c627a9f3f"><path d="M 2.667969 2.652344 L 374.667969 2.652344 L 374.667969 375 L 2.667969 375 Z M 2.667969 2.652344 "/></clipPath></defs><g id="d5731c5b66"><rect x="0" width="375" y="0" height="374.999991" style="fill:#ffffff;fill-opacity:1;stroke:none;"/><rect x="0" width="375" y="0" height="374.999991" style="fill:#eef2ff;fill-opacity:1;stroke:none;"/><g clip-rule="nonzero" clip-path="url(#7c627a9f3f)"><path style=" stroke:none;fill-rule:nonzero;fill:#ffd9d9;fill-opacity:1;" d="M 374.660156 188.640625 C 374.660156 267.363281 325.75 334.664062 256.671875 361.820312 C 235.597656 370.101562 212.660156 374.652344 188.667969 374.652344 C 165.96875 374.652344 144.238281 370.585938 124.136719 363.136719 C 53.230469 336.902344 2.675781 268.683594 2.675781 188.640625 C 2.675781 85.921875 85.949219 2.652344 188.667969 2.652344 C 291.386719 2.652344 374.660156 85.902344 374.660156 188.640625 Z M 374.660156 188.640625 "/></g><path style=" stroke:none;fill-rule:nonzero;fill:#343436;fill-opacity:1;" d="M 217.40625 229.265625 L 240.476562 229.265625 L 240.476562 387.042969 L 217.40625 387.042969 Z M 217.40625 229.265625 "/><path style=" stroke:none;fill-rule:nonzero;fill:#343436;fill-opacity:1;" d="M 213.792969 216.535156 L 219.609375 181.53125 L 241.042969 185.09375 L 235.230469 220.097656 Z M 213.792969 216.535156 "/><path style=" stroke:none;fill-rule:nonzero;fill:#ff6b5a;fill-opacity:1;" d="M 139.605469 227.59375 C 125.71875 225.289062 114.335938 216.148438 109.917969 203.734375 C 105.875 192.398438 108.226562 180.226562 116.203125 171.152344 L 218.964844 54.238281 C 227.359375 44.703125 240.324219 40.332031 253.703125 42.550781 C 267.0625 44.769531 277.941406 53.097656 282.796875 64.851562 L 342.230469 208.699219 C 346.84375 219.859375 345.128906 232.144531 337.636719 241.546875 C 329.441406 251.875 315.710938 256.839844 301.824219 254.53125 Z M 139.605469 227.59375 "/><path style=" stroke:none;fill-rule:nonzero;fill:#e6e6e6;fill-opacity:1;" d="M 305.183594 234.121094 L 142.988281 207.183594 C 136.503906 206.105469 131.296875 202.128906 129.386719 196.792969 C 127.894531 192.574219 128.726562 188.222656 131.714844 184.839844 L 234.480469 67.929688 C 238.105469 63.796875 244.015625 61.953125 250.277344 62.984375 C 256.539062 64.015625 261.527344 67.6875 263.636719 72.761719 L 323.070312 216.609375 C 324.785156 220.785156 324.191406 225.179688 321.398438 228.671875 C 317.882812 233.109375 311.667969 235.199219 305.183594 234.121094 Z M 249.507812 67.644531 C 244.9375 66.875 240.542969 68.191406 238.039062 71.027344 L 135.296875 187.9375 C 133.453125 190.023438 132.945312 192.617188 133.867188 195.1875 C 135.164062 198.855469 139.078125 201.734375 143.777344 202.503906 L 305.976562 229.441406 C 310.699219 230.230469 315.292969 228.757812 317.730469 225.707031 C 319.445312 223.550781 319.796875 220.960938 318.71875 218.390625 L 259.285156 74.542969 C 257.8125 71.046875 254.078125 68.390625 249.507812 67.644531 Z M 249.507812 67.644531 "/><path style=" stroke:none;fill-rule:nonzero;fill:#343436;fill-opacity:1;" d="M 250.035156 91.878906 L 241.179688 90.40625 C 237.136719 89.722656 233.359375 92.601562 232.917969 96.667969 L 224.988281 168.667969 C 224.570312 172.445312 227.183594 175.875 230.917969 176.488281 L 231.953125 176.664062 C 235.6875 177.28125 239.269531 174.886719 240.105469 171.171875 L 255.878906 100.488281 C 256.738281 96.46875 254.078125 92.558594 250.035156 91.878906 Z M 250.035156 91.878906 "/><path style=" stroke:none;fill-rule:nonzero;fill:#343436;fill-opacity:1;" d="M 240.519531 191.296875 C 240.519531 192.058594 240.445312 192.808594 240.300781 193.554688 C 240.152344 194.296875 239.933594 195.019531 239.640625 195.722656 C 239.351562 196.421875 238.996094 197.089844 238.574219 197.71875 C 238.152344 198.351562 237.671875 198.933594 237.136719 199.46875 C 236.597656 200.007812 236.015625 200.484375 235.386719 200.90625 C 234.753906 201.328125 234.085938 201.683594 233.386719 201.976562 C 232.6875 202.265625 231.964844 202.484375 231.21875 202.632812 C 230.472656 202.78125 229.722656 202.855469 228.964844 202.855469 C 228.207031 202.855469 227.453125 202.78125 226.710938 202.632812 C 225.964844 202.484375 225.242188 202.265625 224.542969 201.976562 C 223.839844 201.683594 223.175781 201.328125 222.542969 200.90625 C 221.910156 200.484375 221.328125 200.007812 220.792969 199.46875 C 220.253906 198.933594 219.777344 198.351562 219.355469 197.71875 C 218.933594 197.089844 218.578125 196.421875 218.285156 195.722656 C 217.996094 195.019531 217.777344 194.296875 217.628906 193.554688 C 217.480469 192.808594 217.40625 192.058594 217.40625 191.296875 C 217.40625 190.539062 217.480469 189.789062 217.628906 189.042969 C 217.777344 188.300781 217.996094 187.578125 218.285156 186.875 C 218.578125 186.175781 218.933594 185.507812 219.355469 184.878906 C 219.777344 184.246094 220.253906 183.664062 220.792969 183.125 C 221.328125 182.589844 221.910156 182.109375 222.542969 181.6875 C 223.175781 181.265625 223.839844 180.910156 224.542969 180.621094 C 225.242188 180.332031 225.964844 180.113281 226.710938 179.964844 C 227.453125 179.816406 228.207031 179.742188 228.964844 179.742188 C 229.722656 179.742188 230.472656 179.816406 231.21875 179.964844 C 231.964844 180.113281 232.6875 180.332031 233.386719 180.621094 C 234.085938 180.910156 234.753906 181.265625 235.386719 181.6875 C 236.015625 182.109375 236.597656 182.589844 237.136719 183.125 C 237.671875 183.664062 238.152344 184.246094 238.574219 184.878906 C 238.996094 185.507812 239.351562 186.175781 239.640625 186.875 C 239.933594 187.578125 240.152344 188.300781 240.300781 189.042969 C 240.445312 189.789062 240.519531 190.539062 240.519531 191.296875 Z M 240.519531 191.296875 "/><path style=" stroke:none;fill-rule:nonzero;fill:#343436;fill-opacity:1;" d="M 47.496094 137.664062 C 47.496094 137.664062 22.800781 139.359375 19.132812 160.03125 C 15.460938 180.707031 24.425781 193.628906 43.148438 195.800781 C 61.867188 197.976562 66.414062 193.40625 70.371094 185.9375 C 74.324219 178.421875 82.9375 138.214844 47.496094 137.664062 Z M 47.496094 137.664062 "/><path style=" stroke:none;fill-rule:nonzero;fill:#f1baa4;fill-opacity:1;" d="M 182.757812 155.285156 C 181.769531 154.363281 180.140625 155.285156 180.140625 155.285156 L 168.671875 167.414062 C 171.15625 164.164062 170.363281 161.878906 169.902344 160.957031 C 169.441406 160.03125 164.167969 167.480469 162.082031 170.074219 C 160.652344 171.851562 160.9375 174.972656 161.289062 176.886719 L 133.757812 198.921875 C 129.9375 202.21875 123.785156 203.316406 118.753906 203.757812 C 102.535156 205.164062 66.4375 208.171875 65.425781 207.25 L 87.289062 229.285156 L 119.105469 225.308594 C 130.53125 223.550781 138.988281 218.917969 147.273438 210.851562 L 170.320312 185.9375 L 170.277344 185.894531 C 171.113281 185.980469 172.011719 185.960938 172.890625 185.738281 C 176.078125 184.949219 180.910156 173.414062 180.910156 173.414062 C 183.328125 169.171875 179.679688 168.339844 179.679688 168.339844 C 180.84375 164.824219 176.933594 165.085938 176.933594 165.085938 C 176.933594 165.085938 180.910156 159.679688 181.8125 158.5625 C 182.757812 157.441406 183.746094 156.1875 182.757812 155.285156 Z M 182.757812 155.285156 "/><path style=" stroke:none;fill-rule:nonzero;fill:#343436;fill-opacity:1;" d="M 172.011719 172.359375 C 171.574219 172.140625 171.265625 171.65625 171.066406 170.863281 C 170.957031 170.425781 171.089844 169.570312 173.484375 167.285156 C 174.539062 166.273438 176.078125 164.976562 176.320312 164.886719 C 176.496094 164.824219 176.691406 164.933594 176.757812 165.109375 C 176.824219 165.285156 176.738281 165.460938 176.582031 165.527344 C 176.386719 165.636719 175.109375 166.667969 173.878906 167.855469 C 171.660156 169.984375 171.726562 170.601562 171.75 170.667969 C 171.878906 171.238281 172.078125 171.566406 172.320312 171.699219 C 172.539062 171.808594 172.890625 171.789062 173.375 171.589844 C 174.496094 171.152344 178.734375 168.382812 178.78125 168.359375 C 178.933594 168.25 179.152344 168.292969 179.261719 168.46875 C 179.375 168.644531 179.328125 168.84375 179.152344 168.953125 C 178.976562 169.0625 174.804688 171.789062 173.636719 172.25 C 173.265625 172.402344 172.933594 172.46875 172.648438 172.46875 C 172.429688 172.511719 172.210938 172.46875 172.011719 172.359375 Z M 176.539062 165.589844 Z M 176.539062 165.589844 "/><path style=" stroke:none;fill-rule:nonzero;fill:#343436;fill-opacity:1;" d="M 173.660156 175.128906 C 173.046875 174.796875 172.847656 174.335938 172.804688 174.007812 C 172.628906 172.796875 173.988281 171.4375 174.144531 171.28125 C 174.277344 171.152344 174.496094 171.152344 174.648438 171.28125 C 174.78125 171.414062 174.78125 171.632812 174.648438 171.789062 C 174.296875 172.140625 173.398438 173.195312 173.507812 173.917969 C 173.550781 174.160156 173.703125 174.359375 173.988281 174.511719 C 175.265625 175.171875 178.144531 173.371094 179.21875 172.6875 C 179.703125 172.378906 179.835938 172.316406 179.945312 172.292969 C 180.140625 172.25 180.316406 172.378906 180.363281 172.578125 C 180.40625 172.753906 180.296875 172.929688 180.121094 172.996094 C 180.054688 173.019531 179.8125 173.171875 179.59375 173.304688 C 178.449219 174.027344 176.296875 175.367188 174.671875 175.367188 C 174.296875 175.347656 173.96875 175.28125 173.660156 175.128906 Z M 180.097656 172.972656 C 180.097656 172.953125 180.097656 172.953125 180.097656 172.972656 C 180.097656 172.953125 180.097656 172.953125 180.097656 172.972656 Z M 180.097656 172.972656 "/><path style=" stroke:none;fill-rule:nonzero;fill:#343436;fill-opacity:1;" d="M 167.773438 176.886719 C 167.882812 176.886719 167.96875 176.839844 168.035156 176.753906 C 170.429688 173.808594 168.429688 170.425781 167.859375 169.589844 L 168.980469 167.570312 C 169.066406 167.394531 169.023438 167.195312 168.847656 167.085938 C 168.671875 166.996094 168.476562 167.042969 168.363281 167.21875 L 167.132812 169.4375 C 167.070312 169.570312 167.070312 169.722656 167.15625 169.832031 C 167.265625 169.964844 169.882812 173.371094 167.484375 176.292969 C 167.355469 176.445312 167.375 176.664062 167.53125 176.796875 C 167.617188 176.863281 167.683594 176.886719 167.773438 176.886719 Z M 167.773438 176.886719 "/><path style=" stroke:none;fill-rule:nonzero;fill:#f1baa4;fill-opacity:1;" d="M 54.367188 213.808594 L 40.636719 213.808594 L 40.636719 187.683594 L 54.367188 187.683594 Z M 54.367188 213.808594 "/><path style=" stroke:none;fill-rule:nonzero;fill:#f1baa4;fill-opacity:1;" d="M 71.445312 163.546875 C 71.25 164.054688 72.105469 175.5 68.394531 184.355469 C 66.679688 188.441406 64 191.957031 59.800781 193.605469 C 57.671875 194.441406 55.121094 194.792969 52.132812 194.460938 C 52.132812 194.460938 37.347656 196.089844 31.304688 179.082031 C 31.304688 179.082031 25.085938 179.191406 23.570312 172.644531 C 22.054688 166.097656 26.753906 163.394531 30.292969 166.757812 C 30.292969 166.757812 32.554688 146.761719 50.484375 147.113281 C 68.414062 147.421875 71.445312 163.546875 71.445312 163.546875 Z M 71.445312 163.546875 "/><path style=" stroke:none;fill-rule:nonzero;fill:#343436;fill-opacity:1;" d="M 38.464844 166.644531 C 38.226562 166.359375 38.246094 165.921875 38.53125 165.65625 C 41.476562 163.128906 44.289062 164.425781 45.210938 164.867188 C 45.277344 164.886719 45.320312 164.933594 45.367188 164.933594 C 45.542969 164.953125 45.71875 165.019531 45.847656 165.175781 C 46.089844 165.460938 46.070312 165.898438 45.785156 166.164062 C 45.410156 166.492188 44.992188 166.292969 44.617188 166.117188 C 43.738281 165.703125 41.695312 164.757812 39.433594 166.691406 C 39.300781 166.800781 39.148438 166.867188 38.972656 166.867188 C 38.816406 166.886719 38.621094 166.800781 38.464844 166.644531 Z M 44.882812 165.109375 Z M 44.882812 165.109375 Z M 44.882812 165.109375 Z M 44.882812 165.109375 Z M 44.882812 165.109375 Z M 44.882812 165.109375 Z M 44.882812 165.109375 Z M 44.882812 165.109375 Z M 44.882812 165.109375 Z M 44.882812 165.109375 Z M 44.882812 165.109375 Z M 44.882812 165.109375 C 44.90625 165.109375 44.90625 165.109375 44.882812 165.109375 C 44.90625 165.109375 44.90625 165.109375 44.882812 165.109375 Z M 44.90625 165.109375 Z M 44.90625 165.109375 "/><path style=" stroke:none;fill-rule:nonzero;fill:#343436;fill-opacity:1;" d="M 67.601562 169.394531 C 67.753906 169.394531 67.886719 169.347656 68.019531 169.261719 C 68.328125 169.042969 68.394531 168.601562 68.171875 168.292969 C 68.0625 168.140625 65.558594 164.800781 61.097656 166.03125 C 60.722656 166.140625 60.503906 166.515625 60.613281 166.886719 C 60.722656 167.261719 61.097656 167.480469 61.472656 167.371094 C 65.007812 166.40625 67.03125 169.085938 67.050781 169.105469 C 67.183594 169.28125 67.402344 169.394531 67.601562 169.394531 Z M 67.601562 169.394531 "/><path style=" stroke:none;fill-rule:nonzero;fill:#343436;fill-opacity:1;" d="M 52.351562 184.113281 C 51.980469 184.046875 51.714844 183.71875 51.78125 183.34375 C 51.847656 182.972656 52.175781 182.707031 52.550781 182.730469 C 52.59375 182.730469 53.628906 182.816406 54.460938 181.167969 C 55.144531 179.785156 53.582031 177.28125 52.988281 176.335938 C 52.683594 175.832031 52.574219 175.675781 52.59375 175.390625 C 52.636719 175.015625 52.96875 174.730469 53.363281 174.777344 C 53.648438 174.796875 53.867188 174.996094 53.957031 175.257812 C 54 175.324219 54.066406 175.457031 54.15625 175.589844 C 54.921875 176.820312 56.726562 179.699219 55.691406 181.785156 C 54.636719 183.894531 53.144531 184.113281 52.574219 184.113281 C 52.460938 184.113281 52.375 184.113281 52.351562 184.113281 Z M 53.980469 175.542969 Z M 53.980469 175.542969 Z M 53.980469 175.542969 "/><path style=" stroke:none;fill-rule:nonzero;fill:#343436;fill-opacity:1;" d="M 51.277344 189.34375 C 49.738281 189.300781 47.652344 188.617188 46.441406 185.542969 C 46.3125 185.191406 46.488281 184.773438 46.839844 184.640625 C 47.191406 184.507812 47.605469 184.683594 47.738281 185.035156 C 48.355469 186.574219 49.253906 187.519531 50.417969 187.828125 C 52.089844 188.289062 53.78125 187.410156 54.089844 187.210938 C 54.285156 187.015625 54.59375 186.925781 54.878906 187.058594 C 55.230469 187.210938 55.386719 187.628906 55.230469 187.980469 C 54.988281 188.507812 53.121094 189.34375 51.410156 189.34375 C 51.363281 189.34375 51.320312 189.34375 51.277344 189.34375 Z M 53.933594 187.410156 Z M 53.933594 187.410156 Z M 53.933594 187.410156 "/><path style=" stroke:none;fill-rule:nonzero;fill:#343436;fill-opacity:1;" d="M 42.914062 169.269531 C 43.246094 169.304688 43.558594 169.410156 43.851562 169.589844 C 44.144531 169.769531 44.394531 170.007812 44.601562 170.304688 C 44.808594 170.601562 44.957031 170.933594 45.046875 171.304688 C 45.140625 171.671875 45.164062 172.050781 45.125 172.4375 C 45.085938 172.820312 44.984375 173.1875 44.820312 173.527344 C 44.652344 173.871094 44.441406 174.167969 44.175781 174.414062 C 43.910156 174.664062 43.617188 174.84375 43.296875 174.960938 C 42.972656 175.078125 42.644531 175.117188 42.3125 175.082031 C 41.976562 175.046875 41.664062 174.941406 41.371094 174.761719 C 41.078125 174.582031 40.828125 174.34375 40.621094 174.046875 C 40.414062 173.75 40.265625 173.417969 40.175781 173.046875 C 40.082031 172.679688 40.058594 172.300781 40.097656 171.914062 C 40.136719 171.53125 40.242188 171.164062 40.40625 170.824219 C 40.570312 170.480469 40.785156 170.183594 41.046875 169.9375 C 41.3125 169.6875 41.605469 169.507812 41.929688 169.390625 C 42.25 169.273438 42.578125 169.234375 42.914062 169.269531 Z M 42.914062 169.269531 "/><path style=" stroke:none;fill-rule:nonzero;fill:#e6e6e6;fill-opacity:1;" d="M 43.148438 171.328125 C 43.148438 171.480469 43.117188 171.628906 43.058594 171.773438 C 43 171.914062 42.914062 172.039062 42.804688 172.148438 C 42.695312 172.257812 42.570312 172.34375 42.429688 172.402344 C 42.285156 172.460938 42.136719 172.492188 41.980469 172.492188 C 41.828125 172.492188 41.679688 172.460938 41.535156 172.402344 C 41.394531 172.34375 41.269531 172.257812 41.160156 172.148438 C 41.050781 172.039062 40.964844 171.914062 40.90625 171.773438 C 40.847656 171.628906 40.816406 171.480469 40.816406 171.328125 C 40.816406 171.171875 40.847656 171.023438 40.90625 170.878906 C 40.964844 170.738281 41.050781 170.613281 41.160156 170.503906 C 41.269531 170.394531 41.394531 170.308594 41.535156 170.25 C 41.679688 170.191406 41.828125 170.160156 41.980469 170.160156 C 42.136719 170.160156 42.285156 170.191406 42.429688 170.25 C 42.570312 170.308594 42.695312 170.394531 42.804688 170.503906 C 42.914062 170.613281 43 170.738281 43.058594 170.878906 C 43.117188 171.023438 43.148438 171.171875 43.148438 171.328125 Z M 43.148438 171.328125 "/><path style=" stroke:none;fill-rule:nonzero;fill:#343436;fill-opacity:1;" d="M 63.597656 171.410156 C 63.929688 171.445312 64.242188 171.550781 64.535156 171.730469 C 64.828125 171.910156 65.078125 172.148438 65.285156 172.445312 C 65.492188 172.742188 65.640625 173.074219 65.730469 173.445312 C 65.824219 173.8125 65.847656 174.191406 65.808594 174.578125 C 65.769531 174.960938 65.664062 175.328125 65.5 175.667969 C 65.335938 176.011719 65.121094 176.308594 64.859375 176.554688 C 64.59375 176.804688 64.300781 176.984375 63.976562 177.101562 C 63.65625 177.21875 63.328125 177.257812 62.992188 177.222656 C 62.660156 177.1875 62.347656 177.082031 62.054688 176.902344 C 61.761719 176.722656 61.511719 176.484375 61.304688 176.1875 C 61.097656 175.890625 60.949219 175.558594 60.859375 175.1875 C 60.765625 174.820312 60.742188 174.441406 60.78125 174.054688 C 60.820312 173.671875 60.921875 173.308594 61.085938 172.964844 C 61.253906 172.621094 61.464844 172.324219 61.730469 172.078125 C 61.996094 171.828125 62.289062 171.648438 62.609375 171.53125 C 62.933594 171.414062 63.261719 171.375 63.597656 171.410156 Z M 63.597656 171.410156 "/><path style=" stroke:none;fill-rule:nonzero;fill:#e6e6e6;fill-opacity:1;" d="M 63.84375 173.480469 C 63.84375 173.632812 63.816406 173.78125 63.753906 173.925781 C 63.695312 174.066406 63.613281 174.195312 63.503906 174.304688 C 63.394531 174.410156 63.269531 174.496094 63.125 174.554688 C 62.984375 174.613281 62.835938 174.644531 62.679688 174.644531 C 62.527344 174.644531 62.375 174.613281 62.234375 174.554688 C 62.089844 174.496094 61.964844 174.410156 61.855469 174.304688 C 61.746094 174.195312 61.664062 174.066406 61.605469 173.925781 C 61.542969 173.78125 61.515625 173.632812 61.515625 173.480469 C 61.515625 173.324219 61.542969 173.175781 61.605469 173.035156 C 61.664062 172.890625 61.746094 172.765625 61.855469 172.65625 C 61.964844 172.546875 62.089844 172.460938 62.234375 172.402344 C 62.375 172.34375 62.527344 172.316406 62.679688 172.316406 C 62.835938 172.316406 62.984375 172.34375 63.125 172.402344 C 63.269531 172.460938 63.394531 172.546875 63.503906 172.65625 C 63.613281 172.765625 63.695312 172.890625 63.753906 173.035156 C 63.816406 173.175781 63.84375 173.324219 63.84375 173.480469 Z M 63.84375 173.480469 "/><path style=" stroke:none;fill-rule:nonzero;fill:#a9554a;fill-opacity:1;" d="M 81.511719 253.875 C 81.488281 255.058594 81.445312 256.269531 81.398438 257.433594 C 80.9375 273.777344 80.234375 288.457031 80.234375 288.457031 L 66.941406 292.148438 L 46.332031 297.859375 L 42.839844 296.058594 L 23.613281 286.148438 C 23.613281 286.148438 21.703125 272.964844 20.054688 257.675781 L 20.054688 257.628906 C 17.945312 238.121094 16.230469 215.179688 19.351562 211.601562 C 24.292969 205.929688 29.4375 207.46875 33.257812 204.988281 C 33.742188 204.679688 34.203125 204.285156 34.664062 203.820312 C 38.554688 199.648438 39.761719 195.757812 39.761719 195.757812 C 40.222656 196.042969 49.125 202.152344 56.066406 199.097656 C 56.066406 199.097656 54.132812 205.492188 60.242188 206.0625 C 62.066406 206.21875 64.4375 206.261719 66.921875 206.480469 C 71.710938 206.898438 76.917969 207.976562 79.554688 211.886719 C 79.578125 211.90625 79.597656 211.929688 79.597656 211.953125 C 80.125 212.742188 80.542969 213.644531 80.828125 214.675781 C 82.058594 219.070312 81.949219 236.84375 81.511719 253.875 Z M 81.511719 253.875 "/><path style=" stroke:none;fill-rule:nonzero;fill:#343436;fill-opacity:1;" d="M 23.636719 286.191406 C 23.636719 286.191406 62.570312 281.929688 80.257812 288.476562 C 80.257812 288.476562 86.828125 298.210938 88.605469 318.625 C 92.230469 360.082031 84.894531 391.152344 84.738281 390.402344 L 12.890625 390.886719 C 12.890625 390.886719 9.53125 327.476562 14.277344 312.84375 C 19.042969 298.191406 23.636719 286.191406 23.636719 286.191406 Z M 23.636719 286.191406 "/><path style=" stroke:none;fill-rule:nonzero;fill:#343436;fill-opacity:1;" d="M 48.046875 210.808594 C 45.652344 210.808594 43.476562 210.238281 41.785156 209.445312 C 40.445312 208.808594 38.992188 207.777344 38.882812 206.789062 C 38.863281 206.546875 39.039062 206.304688 39.28125 206.28125 C 39.519531 206.261719 39.761719 206.4375 39.785156 206.679688 C 39.828125 207.007812 40.511719 207.820312 42.179688 208.613281 C 45.519531 210.195312 50.859375 210.765625 55.78125 207.601562 C 56 207.46875 56.265625 207.535156 56.417969 207.734375 C 56.550781 207.953125 56.484375 208.214844 56.285156 208.371094 C 53.515625 210.148438 50.660156 210.808594 48.046875 210.808594 Z M 48.046875 210.808594 "/><path style=" stroke:none;fill-rule:nonzero;fill:#a9554a;fill-opacity:1;" d="M 23.085938 208.566406 C 23.085938 208.566406 3.683594 220.695312 4.980469 236.230469 C 6.277344 251.476562 9.199219 261.9375 9.882812 262.246094 C 10.5625 262.574219 39.015625 255.871094 39.34375 255.367188 C 39.675781 254.863281 39.652344 235.59375 36.335938 228.101562 C 33.5 221.683594 23.085938 208.566406 23.085938 208.566406 Z M 23.085938 208.566406 "/><path style=" stroke:none;fill-rule:nonzero;fill:#343436;fill-opacity:1;" d="M 30.292969 166.734375 C 30.292969 166.734375 54.945312 161.613281 58.769531 152.9375 C 58.769531 152.9375 66.304688 170.84375 75.554688 172.183594 C 75.554688 172.183594 77.070312 145.859375 58.261719 142.960938 C 39.457031 140.0625 31.4375 150.300781 30.292969 166.734375 Z M 30.292969 166.734375 "/><path style=" stroke:none;fill-rule:nonzero;fill:#a9554a;fill-opacity:1;" d="M 66.921875 206.503906 L 103.128906 204.171875 L 105.65625 234.339844 L 78.410156 242.734375 Z M 66.921875 206.503906 "/><path style=" stroke:none;fill-rule:nonzero;fill:#343436;fill-opacity:1;" d="M 25.636719 185.914062 C 25.636719 185.914062 7.640625 201.933594 23.285156 216.367188 C 23.285156 216.367188 17.988281 232.78125 35.542969 232.515625 C 35.542969 232.515625 35.742188 244.050781 46.398438 241.394531 C 46.398438 241.394531 33.28125 262.222656 50.835938 268.617188 C 68.394531 275.007812 56.484375 286.960938 56.484375 286.960938 C 56.484375 286.960938 81.335938 275.84375 71.46875 254.335938 C 61.601562 232.824219 51.78125 239.613281 51.78125 239.613281 C 51.78125 239.613281 55.054688 223.15625 42.179688 227.441406 C 42.179688 227.441406 46.3125 214.984375 33.566406 212.433594 C 33.566406 212.433594 44.640625 205.558594 39.761719 195.824219 L 33.28125 189.386719 Z M 25.636719 185.914062 "/><path style=" stroke:none;fill-rule:nonzero;fill:#f1baa4;fill-opacity:1;" d="M 47.167969 256.136719 C 47.167969 256.136719 48.375 244.25 51.296875 242.050781 C 54.21875 239.878906 63.492188 235.460938 63.492188 235.460938 C 63.492188 235.460938 66.261719 236.078125 64.8125 238.40625 C 64.8125 238.40625 67.226562 237.59375 67.820312 239.765625 C 68.414062 241.941406 67.164062 242.03125 67.164062 242.03125 C 67.164062 242.03125 70.808594 243.855469 67.339844 246.644531 C 67.339844 246.644531 69.886719 247.675781 66.679688 250.535156 C 63.472656 253.390625 59.121094 256.574219 59.121094 256.574219 C 59.121094 256.574219 58.878906 262.574219 56.417969 264.132812 C 53.957031 265.695312 52.332031 266.066406 52.242188 266.417969 C 52.132812 266.769531 38.554688 288.125 27.722656 286.851562 C 16.890625 285.578125 13 260.902344 13 260.902344 C 13 260.902344 31.128906 255.785156 31.214844 256.09375 C 31.304688 256.398438 33.214844 268.066406 33.214844 268.066406 Z M 47.167969 256.136719 "/><path style=" stroke:none;fill-rule:nonzero;fill:#343436;fill-opacity:1;" d="M 54.351562 244.402344 C 54.484375 244.449219 54.617188 244.425781 54.726562 244.359375 C 58.375 242.425781 63.910156 239.480469 64.304688 239.304688 C 64.546875 239.21875 64.679688 238.933594 64.589844 238.691406 C 64.503906 238.425781 64.21875 238.273438 63.953125 238.359375 C 63.886719 238.382812 63.710938 238.425781 54.242188 243.480469 C 54 243.613281 53.914062 243.921875 54.042969 244.160156 C 54.132812 244.273438 54.242188 244.359375 54.351562 244.402344 Z M 54.351562 244.402344 "/><path style=" stroke:none;fill-rule:nonzero;fill:#343436;fill-opacity:1;" d="M 56.660156 247.28125 C 56.769531 247.324219 56.902344 247.304688 57.011719 247.257812 C 60.769531 245.503906 66.414062 242.867188 66.722656 242.710938 C 66.964844 242.625 67.097656 242.339844 67.03125 242.097656 C 66.941406 241.832031 66.65625 241.679688 66.394531 241.765625 C 66.347656 241.789062 66.238281 241.8125 56.570312 246.335938 C 56.328125 246.445312 56.21875 246.753906 56.328125 246.996094 C 56.417969 247.148438 56.527344 247.238281 56.660156 247.28125 Z M 56.660156 247.28125 "/><path style=" stroke:none;fill-rule:nonzero;fill:#343436;fill-opacity:1;" d="M 59.582031 250.292969 C 59.691406 250.3125 59.800781 250.3125 59.910156 250.269531 C 62.4375 249.238281 66.285156 247.675781 66.480469 247.609375 C 66.746094 247.523438 66.875 247.238281 66.789062 246.972656 C 66.699219 246.710938 66.4375 246.578125 66.171875 246.644531 C 66.042969 246.6875 61.953125 248.359375 59.539062 249.324219 C 59.273438 249.433594 59.164062 249.71875 59.253906 249.984375 C 59.316406 250.136719 59.429688 250.246094 59.582031 250.292969 Z M 59.582031 250.292969 "/></g></svg>